<?xml version="1.0" encoding="utf-8"?>
<!-- Generator: Adobe Illustrator 23.0.1, SVG Export Plug-In . SVG Version: 6.00 Build 0)  -->
<svg version="1.1" id="Layer_1" xmlns="http://www.w3.org/2000/svg" xmlns:xlink="http://www.w3.org/1999/xlink" x="0px" y="0px"
	 viewBox="0 0 78.3 13.3" style="enable-background:new 0 0 78.3 13.3;" xml:space="preserve">
<style type="text/css">
	.st0{display:none;}
	.st1{fill:none;}
	.st2{enable-background:new    ;}
	.st3{fill:#275FC1;}
	.st4{fill:#0074AE;}
</style>
<path class="st0" d="M-0.5,0h78.8v13.8H-0.5V0z"/>
<title>g-review</title>
<path class="st1" d="M0.6,2.1h74.7v10.4H0.6V2.1z"/>
<g class="st2">
	<path class="st3" d="M3.3,6.5h2L5.1,7.8H3.3v3h-2V3.5h4.4v1.4H3.3C3.3,4.9,3.3,6.5,3.3,6.5z M11,7.6v3.1H9.6v-0.1
		c0-0.1,0-0.2-0.1-0.2c-0.5,0.3-1,0.4-1.5,0.4H7.9c-0.5,0-0.9-0.2-1.2-0.6C6.5,10,6.4,9.7,6.4,9.3c0-0.6,0.2-1,0.7-1.2
		C7.3,8,7.8,8,8.5,8h0.8V7.7c0-0.4-0.1-0.6-0.2-0.6C9,6.9,8.8,6.9,8.5,6.9H6.9l0.2-1.3h1.7c1.1,0,1.7,0.3,2,0.7
		C10.9,6.7,11,7,11,7.6z M8.7,8.9c-0.3,0-0.5,0-0.6,0.1C8,9.1,8,9.1,8,9.2c0,0.3,0.2,0.5,0.5,0.5c0.2,0,0.5-0.1,0.8-0.2V8.9
		C9.3,8.9,8.7,8.9,8.7,8.9z M15.8,5.7V7c-0.6-0.1-1.2-0.2-1.5-0.2c-0.4,0-0.7,0.1-0.8,0.2c-0.1,0.1-0.2,0.4-0.2,0.8v0.6
		c0,0.5,0.1,0.6,0.2,0.7c0.1,0.2,0.4,0.2,0.8,0.2h0.1c0.3,0,0.8-0.1,1.4-0.2v1.3c0,0-0.3,0.1-0.9,0.2c-0.2,0-0.5,0.1-0.8,0.1
		c-1.2,0-1.9-0.4-2.3-1.2c-0.1-0.3-0.2-0.6-0.2-1.3V8c0-0.7,0.1-1.2,0.3-1.5c0.4-0.6,1.1-0.9,2.2-0.9C14.6,5.5,15.2,5.6,15.8,5.7z
		 M21.2,7.7v0.8h-3v0.2c0,0.4,0.1,0.6,0.3,0.6c0.2,0,0.3,0.1,0.6,0.1h0.1c0.6,0,1.2-0.1,1.8-0.2v1.3c0,0-0.3,0.1-0.9,0.2l-1.2,0.1
		c-1.2,0-2-0.4-2.3-1.1c-0.1-0.3-0.2-0.6-0.2-0.9V7.5c0-0.9,0.4-1.5,1.2-1.8c0.4-0.1,0.7-0.2,1.1-0.2c1.1,0,1.9,0.4,2.2,1
		C21.1,6.8,21.2,7.2,21.2,7.7z M19.2,6.8c-0.1-0.1-0.3-0.1-0.5-0.1c-0.5,0-0.7,0.2-0.7,0.6v0.3h1.4V7.5C19.5,7.1,19.4,6.9,19.2,6.8z
		 M26.7,7.7v0.5c0,0.8-0.1,1.3-0.2,1.6c0,0.1-0.2,0.3-0.4,0.5c-0.4,0.4-1.1,0.6-2.1,0.6c-0.7,0-1.4-0.1-2.2-0.2V3.6l1.7-0.3v2.4
		c0.5-0.2,0.9-0.2,1.2-0.2c1,0,1.6,0.3,1.8,0.7C26.6,6.5,26.7,6.9,26.7,7.7z M24.5,6.8h-0.2c-0.3,0-0.5,0.1-0.8,0.2v2.4h0.6
		c0.5,0,0.8-0.2,0.9-0.5V7.4C25,7.1,24.8,6.9,24.5,6.8z M31.9,7.7v0.9c0,1-0.4,1.6-1.1,1.9c-0.4,0.1-0.8,0.2-1.3,0.2
		c-1.1,0-1.9-0.4-2.2-1c-0.2-0.3-0.2-0.6-0.2-1V7.6c0-1,0.5-1.7,1.4-1.9c0.3-0.1,0.6-0.2,1-0.2h0.2c1.2,0,1.9,0.5,2.2,1.2
		C31.9,6.7,31.9,7.7,31.9,7.7z M29.9,6.9c-0.1-0.1-0.2-0.1-0.3-0.1h-0.2c-0.3,0-0.5,0.1-0.6,0.4l-0.1,0.3v1.3c0,0.5,0.2,0.6,0.7,0.6
		c0.4,0,0.6-0.2,0.7-0.5V7.6C30.2,7.2,30.1,7,29.9,6.9z M37,7.7v0.9c0,1-0.4,1.6-1.1,1.9c-0.4,0.2-0.8,0.2-1.3,0.2
		c-1.1,0-1.9-0.4-2.2-1c-0.2-0.3-0.2-0.6-0.2-1V7.6c0-1,0.5-1.7,1.4-1.9c0.3-0.1,0.6-0.2,1-0.2h0.2c1.2,0,1.9,0.5,2.2,1.2
		C37,6.7,37,7.7,37,7.7z M35,6.9c-0.1-0.1-0.2-0.1-0.3-0.1h-0.1c-0.3,0-0.5,0.1-0.6,0.4L34,7.5v1.3c0,0.5,0.2,0.6,0.7,0.6
		c0.4,0,0.6-0.2,0.7-0.5V7.6C35.3,7.2,35.2,7,35,6.9z M39.2,7.9l1.5-2.2h1.8L40.8,8l1.7,2.6h-1.8l-1.5-2.3v2.4h-1.7V3.6l1.7-0.3
		C39.2,3.3,39.2,7.9,39.2,7.9z"/>
</g>
<path class="st4" d="M45.6,10.8h-1.1V5.3h1.1v0.9c0.1-0.3,0.3-0.6,0.7-0.7c0.3-0.2,0.7-0.3,1-0.3s0.6,0,0.8,0.1l-0.3,1
	c-0.1-0.1-0.4-0.1-0.6-0.1c-0.4,0-0.8,0.2-1.1,0.5c-0.3,0.3-0.5,0.6-0.5,1.1C45.6,7.8,45.6,10.8,45.6,10.8z M51.1,10.9
	c-0.9,0-1.6-0.3-2.1-0.8c-0.6-0.6-0.8-1.2-0.8-2c0-0.8,0.3-1.5,0.8-2c0.5-0.6,1.2-0.8,2.1-0.8c0.9,0,1.6,0.3,2.1,0.7
	c0.5,0.6,0.8,1.3,0.8,2.2v0.1h-4.5c0,0.6,0.2,0.9,0.6,1.3c0.4,0.4,0.8,0.5,1.3,0.5c0.7,0,1.3-0.4,1.7-1l1,0.5
	c-0.3,0.5-0.6,0.8-1.1,1.1C52.1,10.8,51.7,10.9,51.1,10.9z M49.3,7.4h3.3c0-0.4-0.2-0.6-0.5-0.9c-0.3-0.3-0.7-0.4-1.2-0.4
	c-0.4,0-0.8,0.1-1.1,0.4C49.6,6.7,49.4,7,49.3,7.4z M57.5,10.8h-1.1L54,5.3h1.2L57,9.5l1.8-4.3h1.2L57.5,10.8z M62,3.4
	c0,0.2-0.1,0.4-0.2,0.6c-0.2,0.2-0.3,0.2-0.6,0.2S60.8,4.1,60.6,4c-0.2-0.2-0.2-0.3-0.2-0.6s0.1-0.4,0.2-0.6
	c0.2-0.2,0.3-0.2,0.6-0.2s0.4,0.1,0.6,0.2C62,3,62,3.3,62,3.4z M61.7,5.3v5.5h-1.1V5.3H61.7z M65.7,10.9c-0.9,0-1.6-0.3-2.1-0.8
	c-0.6-0.6-0.9-1.2-0.9-2c0-0.8,0.3-1.5,0.8-2s1.2-0.8,2.1-0.8s1.6,0.3,2.1,0.7c0.5,0.6,0.8,1.3,0.8,2.2v0.1h-4.5
	c0,0.6,0.2,0.9,0.6,1.3s0.8,0.5,1.3,0.5c0.7,0,1.3-0.4,1.7-1l1,0.5c-0.3,0.5-0.6,0.8-1.1,1.1C66.8,10.8,66.2,10.9,65.7,10.9z
	 M63.9,7.4h3.3c0-0.4-0.2-0.6-0.5-0.9c-0.3-0.3-0.7-0.4-1.2-0.4c-0.4,0-0.8,0.1-1.1,0.4C64.2,6.7,64,7,63.9,7.4z M77.5,5.3l-1.9,5.5
	h-1.1l-1.5-4.2l-1.5,4.2h-1.1l-1.9-5.5h1.2l1.3,4.1l1.5-4.1h1.1l1.5,4.1l1.3-4.1H77.5z"/>
</svg>
