<svg id="Capa_1" enable-background="new 0 0 512 512" height="512" viewBox="0 0 512 512" width="512" xmlns="http://www.w3.org/2000/svg"><g id="Flat_24_"><g><g><path d="m392 512h-328c-4.418 0-8-3.582-8-8v-496c0-4.418 3.582-8 8-8h384c4.418 0 8 3.582 8 8v440z" fill="#edeaee"/><g fill="#dbd4dd"><path d="m88 504v-496c0-4.418 3.582-8 8-8h-32c-4.418 0-8 3.582-8 8v496c0 4.418 3.582 8 8 8h32c-4.418 0-8-3.582-8-8z"/><path d="m392 512v-56c0-4.418 3.582-8 8-8h56z"/></g></g><g><path d="m240 32h-144c-4.418 0-8 3.582-8 8v160c0 4.418 3.582 8 8 8h144c4.418 0 8-3.582 8-8v-160c0-4.418-3.582-8-8-8z" fill="#ccf0e5"/><g fill="#34c297"><circle cx="168" cy="96" r="32"/><path d="m192 128h-24-24c-13.255 0-24 10.745-24 24v56h96v-56c0-13.255-10.745-24-24-24z"/></g></g><g fill="#c9bfcb"><path d="m336 80h-48c-4.418 0-8-3.582-8-8s3.582-8 8-8h48c4.418 0 8 3.582 8 8s-3.582 8-8 8z"/><path d="m416 80h-48c-4.418 0-8-3.582-8-8s3.582-8 8-8h48c4.418 0 8 3.582 8 8s-3.582 8-8 8z"/><path d="m392 112h-104c-4.418 0-8-3.582-8-8s3.582-8 8-8h104c4.418 0 8 3.582 8 8s-3.582 8-8 8z"/><path d="m336 144h-48c-4.418 0-8-3.582-8-8s3.582-8 8-8h48c4.418 0 8 3.582 8 8s-3.582 8-8 8z"/><path d="m400 176h-112c-4.418 0-8-3.582-8-8s3.582-8 8-8h112c4.418 0 8 3.582 8 8s-3.582 8-8 8z"/></g></g><g><g fill="#e7714e"><path d="m402 360 20.4-27.2c1.817-2.424 2.11-5.667.755-8.377-1.355-2.711-4.125-4.423-7.155-4.423h-112c-4.418 0-8 3.582-8 8v64c0 4.418 3.582 8 8 8h112c3.03 0 5.8-1.712 7.155-4.422s1.063-5.954-.755-8.377z"/><path d="m208 320h-112c-3.03 0-5.8 1.712-7.155 4.422s-1.063 5.954.755 8.377l20.4 27.201-20.4 27.2c-1.817 2.424-2.11 5.667-.755 8.377 1.355 2.711 4.125 4.423 7.155 4.423h112c4.418 0 8-3.582 8-8v-64c0-4.418-3.582-8-8-8z"/></g><g><circle cx="256" cy="360" fill="#fbc137" r="104"/><circle cx="256" cy="360" fill="#fde09b" r="72"/><path d="m272 416c-39.701 0-72-32.299-72-72 0-15.776 5.113-30.373 13.751-42.249-18.011 13.1-29.751 34.324-29.751 58.249 0 39.701 32.299 72 72 72 23.925 0 45.149-11.74 58.249-29.751-11.876 8.638-26.473 13.751-42.249 13.751z" fill="#fcd069"/><path d="m287.49 389.191-24-64c-1.171-3.123-4.155-5.191-7.49-5.191s-6.319 2.068-7.49 5.191l-24 64c-1.552 4.137.544 8.749 4.682 10.3 4.134 1.552 8.748-.544 10.299-4.682l4.053-10.809h24.913l4.053 10.809c1.204 3.212 4.252 5.193 7.491 5.193.934 0 1.883-.165 2.808-.511 4.137-1.552 6.233-6.163 4.681-10.3zm-37.946-21.191 6.456-17.216 6.456 17.216z" fill="#f57702"/></g></g></g></svg>