<svg height="512" viewBox="0 0 64 64" width="512" xmlns="http://www.w3.org/2000/svg"><g id="Flat"><g fill="#a6a1ce"><path d="m47 17h10v45h-10z"/><path d="m52 9-10 10h20z"/><path d="m7 17h10v45h-10z"/><path d="m12 9-10 10h20z"/><path d="m27 10h10v52h-10z"/><path d="m32 2-10 10h20z"/></g><circle cx="47" cy="47" fill="#88d392" r="15"/><path d="m42 53a1 1 0 0 1 -.707-1.707l10-10a1 1 0 0 1 1.414 1.414l-10 10a1 1 0 0 1 -.707.293z" fill="#f1f2f2"/><path d="m43 46a3 3 0 1 1 3-3 3 3 0 0 1 -3 3zm0-4a1 1 0 1 0 1 1 1 1 0 0 0 -1-1z" fill="#f1f2f2"/><path d="m51 54a3 3 0 1 1 3-3 3 3 0 0 1 -3 3zm0-4a1 1 0 1 0 1 1 1 1 0 0 0 -1-1z" fill="#f1f2f2"/><path d="m2 30h22v4h-22z" fill="#fcc96d"/><path d="m2 34h22v4h-22z" fill="#d2a75b"/><path d="m2 38h22v4h-22z" fill="#fcc96d"/><path d="m2 42h22v4h-22z" fill="#d2a75b"/><path d="m2 46h22v4h-22z" fill="#fcc96d"/><path d="m2 50h22v4h-22z" fill="#d2a75b"/><path d="m2 54h22v4h-22z" fill="#fcc96d"/><path d="m2 58h22v4h-22z" fill="#d2a75b"/><path d="m14 30h10v32h-10z" fill="#231f20" opacity=".15"/><circle cx="28" cy="34" fill="#fcc96d" r="11"/><path d="m28.285 40h-1.035a3.226 3.226 0 0 1 -3.057-2.091 1 1 0 1 1 1.883-.676 1.222 1.222 0 0 0 1.174.767h1.035a1.626 1.626 0 0 0 1.715-1.359 1.317 1.317 0 0 0 -.3-.889 1.565 1.565 0 0 0 -.845-.523l-2.171-.512a3.432 3.432 0 0 1 -2.684-3.31 3.324 3.324 0 0 1 1.053-2.424 3.568 3.568 0 0 1 2.474-.983h1.223a3.226 3.226 0 0 1 3.057 2.091 1 1 0 1 1 -1.883.676 1.222 1.222 0 0 0 -1.174-.767h-1.223a1.579 1.579 0 0 0 -1.1.432 1.342 1.342 0 0 0 -.432.976 1.439 1.439 0 0 0 1.146 1.364l2.171.512a3.568 3.568 0 0 1 1.925 1.2 3.3 3.3 0 0 1 .763 2.23 3.609 3.609 0 0 1 -3.715 3.286z" fill="#ce9849"/><path d="m28 30a1 1 0 0 1 -1-1v-2a1 1 0 0 1 2 0v2a1 1 0 0 1 -1 1z" fill="#ce9849"/><path d="m28 42a1 1 0 0 1 -1-1v-2a1 1 0 0 1 2 0v2a1 1 0 0 1 -1 1z" fill="#ce9849"/><path d="m17 46h22v4h-22z" fill="#d2a75b"/><path d="m17 50h22v4h-22z" fill="#fcc96d"/><path d="m17 54h22v4h-22z" fill="#d2a75b"/><path d="m17 58h22v4h-22z" fill="#fcc96d"/><path d="m33 46h6v16h-6z" fill="#231f20" opacity=".15"/></g></svg>