<svg id="Layer_1" height="512" viewBox="0 0 256 256" width="512" xmlns="http://www.w3.org/2000/svg"><g><g><g><g><g><g><g><g><g><g><g><g><g><g><path d="m40.607 96.122c-2.499 0-4.525 2.026-4.525 4.525v76.615c0 2.499 2.026 4.525 4.525 4.525h160.373c2.499 0 4.525-2.026 4.525-4.525v-76.615c0-2.499-2.026-4.525-4.525-4.525z" fill="#648940"/></g></g></g></g></g></g></g></g></g></g><g><g><g><g><g><g><g><g><g><g><path d="m40.607 82.074c-2.499 0-4.525 2.026-4.525 4.525v76.615c0 2.499 2.026 4.525 4.525 4.525h160.373c2.499 0 4.525-2.026 4.525-4.525v-76.615c0-2.499-2.026-4.525-4.525-4.525z" fill="#5a7a39"/></g></g></g></g></g></g></g></g></g></g><g><g><g><g><g><g><g><g><g><g><path d="m40.607 68.026c-2.499 0-4.525 2.026-4.525 4.525v76.615c0 2.499 2.026 4.525 4.525 4.525h160.373c2.499 0 4.525-2.026 4.525-4.525v-76.615c0-2.499-2.026-4.525-4.525-4.525z" fill="#648940"/></g></g></g></g></g></g></g></g></g></g><g><g><g><g><g><g><g><g><g><g><path d="m40.607 53.978c-2.499 0-4.525 2.026-4.525 4.525v76.615c0 2.499 2.026 4.525 4.525 4.525h160.373c2.499 0 4.525-2.026 4.525-4.525v-76.615c0-2.499-2.026-4.525-4.525-4.525z" fill="#5a7a39"/></g></g></g></g></g></g></g></g></g></g><g><g><g><g><g><g><g><g><g><g><path d="m200.979 36.202h-160.372c-2.499 0-4.525 2.026-4.525 4.525v80.461c0 2.499 2.026 4.525 4.525 4.525h160.373c2.499 0 4.525-2.026 4.525-4.525v-80.461c-.001-2.499-2.027-4.525-4.526-4.525z" fill="#91b56b"/></g></g></g></g></g></g><g><g><g><g><g><g><path d="m196.015 64.72c-9.189-1.027-16.484-8.87-17.393-18.72-.108-1.174-1.07-2.081-2.248-2.081h-111.162c-1.179 0-2.14.908-2.248 2.081-.91 9.85-8.204 17.692-17.394 18.72-1.161.13-2.054 1.079-2.054 2.247v27.98c0 1.168.893 2.117 2.054 2.247 9.189 1.027 16.484 8.87 17.393 18.721.108 1.174 1.07 2.081 2.248 2.081h111.162c1.179 0 2.14-.908 2.248-2.081.909-9.851 8.204-17.693 17.393-18.721 1.161-.13 2.054-1.079 2.054-2.247v-27.98c.002-1.168-.891-2.117-2.053-2.247z" fill="#76a34f"/></g></g></g></g></g></g></g></g></g></g></g><g><g><g><g><g><g><ellipse cx="120.793" cy="81.27" fill="#648940" rx="29.359" ry="29.359" transform="matrix(.292 -.957 .957 .292 7.82 173.1)"/></g></g></g></g></g></g><g><g><g><path d="m123.486 78.264h-1.034v-10.148h1.034c2.798 0 5.074 2.276 5.074 5.074 0 .915.744 1.659 1.659 1.659s1.659-.744 1.659-1.659c0-4.628-3.765-8.392-8.392-8.392h-1.034v-1.034c0-.915-.744-1.659-1.659-1.659s-1.659.744-1.659 1.659v1.034h-1.034c-4.628 0-8.393 3.765-8.393 8.392 0 4.628 3.765 8.392 8.393 8.392h1.034v12.841h-1.034c-2.798 0-5.074-2.276-5.074-5.074 0-.915-.744-1.659-1.659-1.659s-1.659.744-1.659 1.659c0 4.628 3.765 8.392 8.393 8.392h1.034v1.034c0 .915.744 1.659 1.659 1.659s1.659-.744 1.659-1.659v-1.034h1.034c4.628 0 8.392-3.765 8.392-8.392v-2.694c0-4.627-3.765-8.391-8.393-8.391zm-5.386-10.148h1.034v10.147h-1.034c-2.798 0-5.074-2.276-5.074-5.074 0-2.797 2.276-5.073 5.074-5.073zm10.46 18.54v2.694c0 2.798-2.276 5.074-5.074 5.074h-1.034v-12.842h1.034c2.798 0 5.074 2.276 5.074 5.074z" fill="#fff"/></g></g></g></g></g><g><g><g><circle cx="64.174" cy="175.306" fill="#ffa91a" r="44.492"/></g></g><g><g><path d="m35.04 202.44c-.58 0-1.13-.25-1.51-.69-6.351-7.35-9.851-16.74-9.851-26.44.01-22.33 18.17-40.49 40.49-40.5 4.29 0 8.51.67 12.55 1.99 1.05.34 1.62 1.48 1.28 2.53-.34 1.02-1.49 1.61-2.521 1.28-3.64-1.19-7.449-1.8-11.31-1.8-9.72 0-18.88 3.8-25.79 10.71-6.9 6.9-10.7 16.06-10.7 25.79 0 8.74 3.16 17.2 8.88 23.82v.01c.721.84.62 2.09-.21 2.81-.358.32-.828.49-1.308.49zm48.35-58.48c-.35 0-.7-.09-1-.27-.01 0-.01 0-.01 0-.46-.27-.79-.7-.92-1.21-.141-.52-.07-1.06.2-1.52.529-.92 1.81-1.26 2.729-.73.47.27.8.7.93 1.22.141.51.07 1.05-.199 1.52-.35.61-1.02.99-1.73.99z" fill="#ffc91d"/></g></g><g><path d="m90.237 139.243c5.303 7.325 8.43 16.329 8.43 26.063 0 24.573-19.92 44.492-44.493 44.492-9.734 0-18.738-3.127-26.063-8.43 8.083 11.166 21.225 18.43 36.063 18.43 24.573 0 44.493-19.92 44.493-44.492-.001-14.838-7.265-27.98-18.43-36.063z" fill="#f79219"/></g><g><path d="m93.035 141.444c6.629 7.77 10.631 17.848 10.631 28.862 0 24.573-19.92 44.492-44.493 44.492-11.014 0-21.092-4.002-28.861-10.631 8.161 9.565 20.302 15.631 33.861 15.631 24.573 0 44.493-19.92 44.493-44.492 0-13.559-6.065-25.701-15.631-33.862z" fill="#ef7816"/></g><g><g><g><g><g><g><path d="m49.443 186.422-14.673.007c-1.397.001-2.53-1.131-2.531-2.528l-.008-17.192c-.001-1.397 1.131-2.53 2.528-2.531l14.673-.007z" fill="#478cf7"/></g></g></g></g></g><g><path d="m80.947 182.481 3.045.001c1.397.001 2.53-1.131 2.531-2.528l.004-9.309c.001-1.397-1.131-2.53-2.528-2.531l-3.045-.001z" fill="#478cf7"/></g><g><g><path d="m32.238 183.237h-.708c-2.499.001-4.526-2.024-4.527-4.523l-.003-6.814c-.001-2.499 2.024-4.526 4.523-4.527h.708z" fill="#fff"/></g></g><g><g><path d="m99.748 176.882h-5.859c-.883 0-1.599-.716-1.599-1.599 0-.883.716-1.599 1.599-1.599h5.859c.883 0 1.599.716 1.599 1.599 0 .883-.716 1.599-1.599 1.599z" fill="#fff"/></g><g><path d="m95.414 163.221-4.143 4.143c-.624.624-1.637.624-2.261 0-.624-.624-.624-1.637 0-2.261l4.143-4.143c.624-.624 1.637-.624 2.261 0 .625.624.625 1.637 0 2.261z" fill="#fff"/></g><g><path d="m93.153 189.605-4.143-4.143c-.624-.624-.624-1.637 0-2.261.624-.624 1.637-.624 2.261 0l4.143 4.143c.624.624.624 1.637 0 2.261-.624.625-1.637.625-2.261 0z" fill="#fff"/></g></g><g><path d="m36.832 164.162h2.407v22.263h-2.407z" fill="#2266d3"/></g><g><path d="m50.488 192.317h1.155c.863 0 1.473-.846 1.2-1.664l-1.408-4.228h-2.91z" fill="#2266d3"/></g><g><path d="m53.263 197.815-3.794-11.39h-7.762l4.515 13.554c.431 1.293 1.64 2.165 3.003 2.165h4.692c1.065 0 1.929-.863 1.929-1.929 0-1.065-.863-1.929-1.929-1.929-.297 0-.56-.19-.654-.471z" fill="#377de2"/></g><g><path d="m32.233 172.617h-2.269c-.571 0-1.034-.463-1.034-1.034 0-.571.463-1.034 1.034-1.034h2.269z" fill="#d1d3d4"/></g><g><path d="m32.233 176.314h-2.269c-.571 0-1.034-.463-1.034-1.034 0-.571.463-1.034 1.034-1.034h2.269z" fill="#d1d3d4"/></g><g><path d="m32.233 180.012h-2.269c-.571 0-1.034-.463-1.034-1.034 0-.571.463-1.034 1.034-1.034h2.269z" fill="#d1d3d4"/></g><g><path d="m49.443 164.171v22.251c8.268 0 16.409 2.041 23.699 5.942l7.803 4.176v-42.486l-7.803 4.176c-7.291 3.9-15.431 5.941-23.699 5.941z" fill="#fff"/></g><g><path d="m78.725 199.069c1.226 0 2.22-.994 2.22-2.22v-43.105c0-1.226-.994-2.22-2.22-2.22-1.226 0-2.22.994-2.22 2.22v43.105c0 1.226.994 2.22 2.22 2.22z" fill="#e6e7e8"/></g></g></g><g><g><g><g><g><g><g><g><ellipse cx="198.07" cy="112.462" fill="#ffa91a" rx="38.249" ry="38.249" transform="matrix(.333 -.943 .943 .333 26.135 261.853)"/></g></g></g></g></g></g><g><path d="m222.501 83.032c5.506 6.626 8.818 15.141 8.818 24.43 0 21.124-17.125 38.249-38.249 38.249-9.289 0-17.804-3.312-24.431-8.818 7.016 8.443 17.595 13.818 29.431 13.818 21.124 0 38.249-17.124 38.249-38.249 0-11.835-5.376-22.414-13.818-29.43z" fill="#f79219"/></g><g><g><g><path d="m201.119 109.058h-1.171v-11.489h1.171c3.168 0 5.745 2.577 5.745 5.745 0 1.036.843 1.879 1.879 1.879s1.879-.843 1.879-1.879c0-5.24-4.263-9.502-9.502-9.502h-1.171v-1.171c0-1.036-.843-1.879-1.879-1.879s-1.879.843-1.879 1.879v1.171h-1.171c-5.24 0-9.503 4.262-9.503 9.502s4.263 9.502 9.503 9.502h1.171v14.539h-1.171c-3.168 0-5.745-2.577-5.745-5.745 0-1.036-.843-1.879-1.879-1.879s-1.879.843-1.879 1.879c0 5.24 4.263 9.502 9.503 9.502h1.171v1.171c0 1.036.843 1.879 1.879 1.879s1.879-.843 1.879-1.879v-1.171h1.171c5.24 0 9.502-4.263 9.502-9.502v-3.05c-.001-5.239-4.263-9.502-9.503-9.502zm-6.098-11.489h1.171v11.489h-1.171c-3.168 0-5.745-2.577-5.745-5.745s2.577-5.744 5.745-5.744zm11.843 20.991v3.05c0 3.168-2.577 5.745-5.745 5.745h-1.171v-14.539h1.171c3.168 0 5.745 2.577 5.745 5.744z" fill="#fff"/></g></g></g></g><g><g><g><g><g><path d="m166.786 178.007c-3.847 0-6.965 3.119-6.965 6.965 0 3.847 3.118 6.965 6.965 6.965h62.568c3.847 0 6.965-3.119 6.965-6.965 0-3.847-3.118-6.965-6.965-6.965z" fill="#ffa91a"/></g></g></g></g></g><g><g><g><g><path d="m166.786 191.938h62.568c3.847 0 6.965-3.119 6.965-6.965h-76.498c0 3.846 3.118 6.965 6.965 6.965z" fill="#f79219"/></g></g></g></g><g><g><g><g><g><path d="m166.786 191.938c-3.847 0-6.965 3.119-6.965 6.965s3.118 6.965 6.965 6.965h62.568c3.847 0 6.965-3.119 6.965-6.965s-3.118-6.965-6.965-6.965z" fill="#ffa91a"/></g></g></g></g></g><g><g><g><g><path d="m166.786 205.868h62.568c3.847 0 6.965-3.119 6.965-6.965h-76.498c0 3.846 3.118 6.965 6.965 6.965z" fill="#f79219"/></g></g></g></g><g><g><g><g><g><path d="m166.786 205.868c-3.847 0-6.965 3.119-6.965 6.965 0 3.847 3.118 6.965 6.965 6.965h62.568c3.847 0 6.965-3.119 6.965-6.965s-3.118-6.965-6.965-6.965z" fill="#ffa91a"/></g></g></g></g></g><g><g><g><g><path d="m166.786 219.798h62.568c3.847 0 6.965-3.119 6.965-6.965h-76.498c0 3.847 3.118 6.965 6.965 6.965z" fill="#f79219"/></g></g></g></g><g><g><g><g><g><path d="m166.786 164.078c-3.847 0-6.965 3.118-6.965 6.965s3.118 6.965 6.965 6.965h62.568c3.847 0 6.965-3.118 6.965-6.965s-3.118-6.965-6.965-6.965z" fill="#ffa91a"/></g></g></g></g></g><g><g><g><g><path d="m166.786 178.007h62.568c3.847 0 6.965-3.118 6.965-6.965h-76.498c0 3.847 3.118 6.965 6.965 6.965z" fill="#f79219"/></g></g></g></g><g><g><g><g><g><path d="m166.786 150.148c-3.847 0-6.965 3.118-6.965 6.965 0 3.846 3.118 6.965 6.965 6.965h62.568c3.847 0 6.965-3.118 6.965-6.965s-3.118-6.965-6.965-6.965z" fill="#ffa91a"/></g></g></g></g></g><g><g><g><g><path d="m166.786 164.078h62.568c3.847 0 6.965-3.118 6.965-6.965h-76.498c0 3.846 3.118 6.965 6.965 6.965z" fill="#f79219"/></g></g></g></g></g></g></svg>