<svg id="Layer_1" enable-background="new 0 0 74 74" height="512" viewBox="0 0 74 74" width="512" xmlns="http://www.w3.org/2000/svg"><g><g><g><path d="m25.77 22.48c-2.79-3.93.64-17.48-10.38-17.48s-7.6 13.55-10.39 17.48c6.92 4.44 13.85 4.44 20.77 0z" fill="#565455"/></g><g><g><path d="m5.87 34.76.62 8.9h1.86l.61-8.9z" fill="#fc9"/></g><g><g><path d="m9.52 45.02c-.06.04-.12.06-.19.06-.1 0-.21-.05-.27-.14l-.43-.62v1.95c0 .18-.15.32-.32.32-.18 0-.33-.15-.33-.32v.23c0 .18-.15.33-.33.33s-.32-.15-.32-.33v-.23c0 .18-.15.32-.33.32s-.32-.15-.32-.32c0 .18-.15.32-.33.32s-.33-.15-.33-.32v-1.98c0-.62.51-1.13 1.13-1.13h.74c.47 0 .9.23 1.16.61l.55.8c.11.15.07.35-.08.45z" fill="#fc9"/></g><g><g><path d="m8.02 45.83c-.01.15 0 .29-.03.44-.03-.15-.02-.29-.04-.44.01-.15.01-.29.04-.44.02.15.02.3.03.44z" fill="#db976a"/></g><g><path d="m7.33 45.39c.03.15.02.29.03.44-.01.15 0 .29-.03.44-.03-.15-.02-.29-.03-.44.01-.14.01-.29.03-.44z" fill="#db976a"/></g><g><path d="m6.68 45.54c.03.12.02.24.03.36-.01.12 0 .24-.03.36-.03-.12-.02-.24-.03-.36.01-.11 0-.23.03-.36z" fill="#db976a"/></g></g></g></g><g><g><path d="m24.9 34.76-.62 8.9h-1.86l-.62-8.9z" fill="#fc9"/></g><g><g><path d="m21.24 45.02c.06.04.12.06.19.06.1 0 .21-.05.27-.14l.43-.62v1.95c0 .18.15.32.32.32.18 0 .33-.15.33-.32v.23c0 .18.15.33.33.33s.32-.15.32-.33v-.23c0 .18.15.32.33.32s.32-.15.32-.32c0 .18.15.32.33.32s.33-.15.33-.32v-1.98c0-.62-.51-1.13-1.13-1.13h-.74c-.47 0-.9.23-1.16.61l-.55.8c-.1.15-.06.35.08.45z" fill="#fc9"/></g><g><g><path d="m22.75 45.83c.01.15 0 .29.03.44.03-.15.02-.29.04-.44-.01-.15-.01-.29-.04-.44-.03.15-.02.3-.03.44z" fill="#db976a"/></g><g><path d="m23.43 45.39c-.03.15-.02.29-.03.44.01.15 0 .29.03.44.03-.15.02-.29.03-.44 0-.14 0-.29-.03-.44z" fill="#db976a"/></g><g><path d="m24.09 45.54c-.03.12-.02.24-.03.36.01.12 0 .24.03.36.03-.12.02-.24.03-.36-.01-.11-.01-.23-.03-.36z" fill="#db976a"/></g></g></g></g><g><path d="m25.41 31.7v3.26h-20.05v-3.25c0-2.16 1.01-4.2 2.73-5.51h.01c1.21-.92 2.69-1.42 4.21-1.42h6.17c1.52 0 3 .5 4.21 1.43 1.71 1.3 2.72 3.33 2.72 5.49z" fill="#ffd767"/></g><g><path d="m20.55 25.1c-.65 1.96-2.71 3.37-5.17 3.37-2.45 0-4.51-1.43-5.16-3.37.67-.22 1.38-.33 2.09-.33h6.17c.7 0 1.4.11 2.07.33z" fill="#f4bc89"/></g><g><path d="m9.27 32.38h12.23v12.34h-12.23z" fill="#5ad1fe"/></g><g><g><path d="m20.72 56.59-.23 10.46-2.58-.02-1.17-10.46z" fill="#fc9"/></g><g><g><path d="m21.14 68.3v.17c0 .3-.24.54-.54.54h-2.75c-.3 0-.54-.24-.54-.54v-.17c0-1.05.85-1.91 1.91-1.91 1.07 0 1.92.85 1.92 1.91z" fill="#565455"/></g><g><path d="m21.14 68.3v.17c0 .3-.24.54-.54.54h-2.75c-.3 0-.54-.24-.54-.54v-.17z" fill="#dfe7ef"/></g></g><g><path d="m10.05 56.59.23 10.46 2.58-.02 1.16-10.46z" fill="#fc9"/></g><g><g><path d="m9.62 68.3v.17c0 .3.24.54.54.54h2.75c.3 0 .54-.24.54-.54v-.17c0-1.05-.85-1.91-1.91-1.91-1.06 0-1.92.85-1.92 1.91z" fill="#565455"/></g><g><path d="m9.62 68.3v.17c0 .3.24.54.54.54h2.75c.3 0 .54-.24.54-.54v-.17z" fill="#dfe7ef"/></g></g><g><g><path d="m14.58 56.83.8-4.23.8 4.23h5.41v-10.49h-12.41v10.49z" fill="#565455"/></g><g><path d="m9.18 32.34h12.4v13.99h-12.4z" fill="#f36"/></g><g><g><path d="m9.18 45.05h12.4v1.28h-12.4z" fill="#ffd767"/></g><g><path d="m16.86 46.73h-2.95v-2.08h2.95zm-2.47-.48h1.98v-1.11h-1.98z" fill="#fff"/></g><g><path d="m13.58 45.45h1.81v.48h-1.81z" fill="#fff"/></g></g><g><path d="m10.84 36.21h-1.66v-11.24l1.66-.25z" fill="#f36"/></g><g><path d="m21.59 36.21h-1.66v-11.49l1.66.25z" fill="#f36"/></g></g></g><g><path d="m17.85 20.73v4.37c-1.64.95-3.28.95-4.92 0v-4.37z" fill="#f4bc89"/></g><g><g><g><path d="m23.23 17.65c0 1-.69 1.81-1.55 1.81s-1.55-.81-1.55-1.81.69-1.81 1.55-1.81 1.55.8 1.55 1.81z" fill="#f4bc89"/></g><g><path d="m10.64 17.65c0 1-.69 1.81-1.55 1.81-.85 0-1.55-.81-1.55-1.81s.69-1.81 1.55-1.81c.86-.01 1.55.8 1.55 1.81z" fill="#f4bc89"/></g></g><g><path d="m21.68 11.11v7.06c-.68 3.45-2.48 5.71-6.29 5.8-3.81-.09-5.61-2.35-6.29-5.8v-7.06z" fill="#fc9"/></g><g><g><g><path d="m18.91 17.04c0 .44-.34.8-.76.8s-.76-.36-.76-.8.34-.8.76-.8.76.36.76.8z" fill="#565455"/></g><g><path d="m18.15 16.73c0 .12-.1.22-.22.22s-.22-.1-.22-.22.1-.22.22-.22c.12-.01.22.09.22.22z" fill="#fff"/></g><g><path d="m16.98 15.73c.1-.21.28-.38.48-.5.21-.12.45-.18.69-.19s.49.05.7.16.39.27.5.48c-.22-.08-.42-.14-.61-.18-.2-.04-.39-.06-.58-.05-.19 0-.38.03-.58.08-.19.04-.39.11-.6.2z" fill="#f4bc89"/></g></g><g><g><path d="m11.87 17.04c0 .44.34.8.76.8s.76-.36.76-.8-.34-.8-.76-.8-.76.36-.76.8z" fill="#565455"/></g><g><path d="m12.63 16.73c0 .12.1.22.22.22s.22-.1.22-.22-.1-.22-.22-.22c-.12-.01-.22.09-.22.22z" fill="#fff"/></g><g><path d="m13.79 15.73c-.22-.09-.41-.16-.6-.2-.19-.05-.39-.07-.58-.08-.19 0-.38.01-.58.05s-.39.1-.61.18c.11-.21.29-.37.5-.48s.45-.17.7-.16c.24 0 .48.07.69.19s.39.29.48.5z" fill="#f4bc89"/></g></g></g><g><path d="m14.32 19.44c.19.07.37.13.55.18.17.05.35.07.52.07s.34-.03.52-.07c.18-.05.35-.11.55-.18-.11.17-.27.31-.45.42-.18.1-.4.16-.62.16s-.43-.06-.62-.17c-.18-.09-.33-.23-.45-.41z" fill="#f4bc89"/></g><g><path d="m13.3 20.62c.35.11.7.22 1.05.29s.7.11 1.05.11.7-.04 1.05-.11.69-.18 1.05-.29c-.29.23-.62.41-.98.54-.36.12-.73.19-1.11.19s-.76-.07-1.11-.19c-.38-.13-.71-.31-1-.54z" fill="#f4bc89"/></g><g><path d="m16 22.14c-.06.1-.15.19-.26.25s-.23.1-.36.1-.25-.04-.36-.1-.2-.15-.26-.25c.11.05.21.1.31.13s.2.05.31.05c.1 0 .2-.02.31-.05.1-.03.21-.07.31-.13z" fill="#f4bc89"/></g><g><path d="m8.82 13.49s1.38-.86 1.65-1.98c0 0 .17.94-.17 2.24 0 0 4.08.9 5.29-1.99 0 0 .23.81-.38 2.12 0 0 3.61.05 5.44-1.73 0 0 .07 1.38 1.26 2.27v-4.24h-13.09z" fill="#565455"/></g></g></g><g><g><path d="m47.69 10.5c.49.09.85.5.85.99v3.27c0 4.56-2.08 8.87-5.64 11.73l-4.89 3.9c-.37.29-.89.29-1.26 0l-4.89-3.9c-3.56-2.85-5.64-7.16-5.64-11.73v-3.26c0-.49.36-.9.85-.99 3.72-.68 6.93-2.39 9.59-5.19.39-.41 1.05-.41 1.44 0 2.67 2.79 5.88 4.5 9.59 5.18z" fill="#5aed99"/></g><g><path d="m33.11 24.93c-3.1-2.49-4.88-6.19-4.88-10.16v-2.46c3.5-.78 6.57-2.43 9.15-4.89 2.59 2.47 5.66 4.11 9.15 4.89v2.46c0 3.97-1.78 7.67-4.89 10.16l-4.27 3.41z" fill="#dfe7ef"/></g><g><path d="m40.85 20.74c-.96.96-2.21 1.43-3.47 1.43s-2.51-.48-3.46-1.43c-1.91-1.91-1.91-5.02 0-6.94 1.91-1.91 5.02-1.91 6.93 0 1.91 1.92 1.91 5.03 0 6.94z" fill="#5aed99"/></g><g><path d="m36.54 19.46c-.17 0-.33-.07-.45-.19l-1.4-1.4c-.25-.25-.25-.65 0-.9s.65-.25.9 0l.94.94 2.63-2.63c.25-.25.65-.25.9 0s.25.65 0 .9l-3.06 3.09c-.12.12-.29.19-.46.19z" fill="#fff"/></g></g><g><g><path d="m63.32 56.59-.23 10.46-2.58-.02-1.16-10.46z" fill="#fc9"/></g><g><g><path d="m63.75 68.3v.17c0 .3-.24.54-.54.54h-2.75c-.3 0-.54-.24-.54-.54v-.17c0-1.05.85-1.91 1.91-1.91 1.07 0 1.92.85 1.92 1.91z" fill="#565455"/></g><g><path d="m63.75 68.3v.17c0 .3-.24.54-.54.54h-2.75c-.3 0-.54-.24-.54-.54v-.17z" fill="#dfe7ef"/></g></g><g><path d="m52.66 56.59.23 10.46 2.58-.02 1.16-10.46z" fill="#fc9"/></g><g><g><path d="m52.23 68.3v.17c0 .3.24.54.54.54h2.75c.3 0 .54-.24.54-.54v-.17c0-1.05-.85-1.91-1.91-1.91-1.07 0-1.92.85-1.92 1.91z" fill="#565455"/></g><g><path d="m52.23 68.3v.17c0 .3.24.54.54.54h2.75c.3 0 .54-.24.54-.54v-.17z" fill="#dfe7ef"/></g></g><g><path d="m69 32.34v3.58h-22.02v-3.57c0-2.38 1.11-4.62 3-6.06h.01c1.33-1.01 2.95-1.56 4.62-1.56h6.77c1.67 0 3.3.55 4.63 1.57 1.88 1.43 2.99 3.67 2.99 6.04z" fill="#dfe7ef"/></g><g><path d="m62.98 24.91c-3.32 2.32-6.64 2.32-9.97 0 .52-.13 1.05-.18 1.59-.18h6.78c.54-.01 1.07.05 1.6.18z" fill="#cad4dd"/></g><g><g><path d="m57.19 56.83.8-4.23.8 4.23h5.4v-10.49h-12.4v10.49z" fill="#565455"/></g><g><path d="m51.79 32.34h12.4v13.99h-12.4z" fill="#f36"/></g><g><g><path d="m51.79 45.05h12.4v1.28h-12.4z" fill="#ffd767"/></g><g><path d="m59.46 46.73h-2.95v-2.08h2.95zm-2.46-.48h1.98v-1.11h-1.98z" fill="#fff"/></g><g><path d="m56.18 45.45h1.81v.48h-1.81z" fill="#fff"/></g></g><g><path d="m53.45 36.21h-1.66v-11.24l1.66-.25z" fill="#f36"/></g><g><path d="m64.19 36.21h-1.66v-11.49l1.66.25z" fill="#f36"/></g></g><g><path d="m60.81 20.36v4.38c-1.87.95-3.75.95-5.62 0v-4.38z" fill="#f4bc89"/></g><g><g><g><path d="m66.3 16.56c0 1.06-.73 1.92-1.64 1.92-.9 0-1.64-.86-1.64-1.92s.73-1.92 1.64-1.92 1.64.86 1.64 1.92z" fill="#f4bc89"/></g><g><path d="m52.96 16.56c0 1.06-.73 1.92-1.64 1.92-.9 0-1.64-.86-1.64-1.92s.73-1.92 1.64-1.92 1.64.86 1.64 1.92z" fill="#f4bc89"/></g></g><g><path d="m64.66 9.64v7.48c-.72 3.66-2.63 6.04-6.67 6.14-4.04-.1-5.95-2.48-6.67-6.14v-7.48z" fill="#fc9"/></g><g><path d="m51.32 17.29s.49.17.36-2.29c-.04-.77.26-1.53.84-2.03.43-.37 1.07-.65 2-.6 2.48.12 4.72.08 6.63-.84 0 0 .32.95 2.04 1.84 1.2.62.72 3.65 1.44 3.92 1.99-4.83 2.68-9.54-1.18-10.03 0 0-2.59-3.57-8.94-1.65s-4.22 11.74-3.19 11.68z" fill="#565455"/></g><g><g><g><ellipse cx="60.92" cy="15.92" fill="#565455" rx=".8" ry=".85"/></g><g><path d="m60.92 15.59c0 .13-.11.24-.24.24s-.24-.11-.24-.24.11-.24.24-.24.24.11.24.24z" fill="#fff"/></g><g><path d="m59.68 14.53c.11-.22.29-.4.51-.53.22-.12.47-.2.73-.2.26-.01.51.05.74.17.22.12.42.29.53.51-.23-.08-.44-.15-.65-.19s-.41-.06-.61-.06-.41.03-.61.08c-.21.05-.41.13-.64.22z" fill="#f4bc89"/></g></g><g><g><ellipse cx="55.07" cy="15.92" fill="#565455" rx=".8" ry=".85"/></g><g><path d="m55.07 15.59c0 .13.11.24.24.24s.24-.11.24-.24-.11-.24-.24-.24c-.14 0-.24.11-.24.24z" fill="#fff"/></g><g><path d="m56.31 14.53c-.23-.09-.43-.16-.64-.21s-.41-.08-.61-.08-.41.02-.61.06c-.21.04-.42.11-.65.19.11-.22.31-.39.53-.51s.48-.18.74-.17.51.08.73.2c.21.12.4.3.51.52z" fill="#f4bc89"/></g></g></g><g><path d="m56.87 18.47c.21.07.39.14.58.19s.37.08.55.08.36-.03.55-.08.37-.12.58-.19c-.12.18-.28.33-.47.44s-.42.17-.65.17-.46-.07-.65-.17c-.21-.11-.38-.26-.49-.44z" fill="#f4bc89"/></g><g><path d="m55.78 20.06c.37.12.74.23 1.11.31s.74.12 1.11.12.74-.04 1.11-.12c.37-.07.73-.19 1.11-.31-.31.25-.66.44-1.03.57-.38.13-.78.2-1.18.2s-.8-.07-1.18-.2c-.39-.13-.75-.32-1.05-.57z" fill="#f4bc89"/></g><g><path d="m58.65 21.33c-.06.11-.16.2-.27.27s-.24.11-.38.11-.27-.04-.38-.11-.21-.16-.27-.27c.11.06.22.11.33.14.11.04.22.06.32.06.11 0 .22-.02.32-.06.11-.04.21-.09.33-.14z" fill="#f4bc89"/></g></g><g><g opacity=".3"><path d="m53.25 33.88v5.96c0 .22-.18.41-.4.41-.23 0-.41-.19-.41-.41v-5.96c0-.22.18-.4.41-.4.22 0 .4.18.4.4z" fill="#fff"/></g><g opacity=".3"><path d="m53.25 41.74v1.47c0 .22-.18.41-.4.41-.23 0-.41-.19-.41-.41v-1.47c0-.22.18-.4.41-.4.22 0 .4.18.4.4z" fill="#fff"/></g></g><g><g><path d="m68.25 35.92-.66 8.94h-1.99l-.66-8.94z" fill="#fc9"/></g><g><g><path d="m64.34 46.32c.06.04.13.06.2.06.11 0 .22-.05.29-.15l.46-.67v2.09c0 .19.16.35.35.35.2 0 .35-.16.35-.35v.25c0 .2.16.35.35.35s.35-.16.35-.35v-.25c0 .19.16.35.35.35s.35-.16.35-.35c0 .19.16.35.35.35s.35-.16.35-.35v-2.12c0-.67-.54-1.21-1.21-1.21h-.79c-.5 0-.96.25-1.25.66l-.58.85c-.12.17-.07.39.08.49z" fill="#fc9"/></g><g><g><path d="m65.95 47.19c.01.16 0 .31.03.47.03-.16.02-.31.04-.47-.01-.16-.01-.31-.04-.47-.02.15-.02.31-.03.47z" fill="#db976a"/></g><g><ellipse cx="66.69" cy="47.19" fill="#db976a" rx=".03" ry=".47"/></g><g><path d="m67.38 46.88c-.03.13-.02.26-.03.39.01.13 0 .26.03.39.03-.13.02-.26.03-.39 0-.13 0-.26-.03-.39z" fill="#db976a"/></g></g></g></g><g><g><path d="m47.73 35.92.66 8.94h1.99l.66-8.94z" fill="#fc9"/></g><g><g><path d="m51.64 46.32c-.06.04-.13.06-.2.06-.11 0-.22-.05-.29-.15l-.46-.67v2.09c0 .19-.16.35-.35.35-.2 0-.35-.16-.35-.35v.25c0 .2-.16.35-.35.35s-.35-.16-.35-.35v-.25c0 .19-.16.35-.35.35s-.35-.16-.35-.35c0 .19-.16.35-.35.35s-.35-.16-.35-.35v-2.12c0-.67.54-1.21 1.21-1.21h.79c.5 0 .96.25 1.25.66l.58.85c.12.17.07.39-.08.49z" fill="#fc9"/></g><g><g><path d="m50.03 47.19c-.01.16 0 .31-.03.47-.03-.16-.02-.31-.04-.47.01-.16.01-.31.04-.47.02.15.02.31.03.47z" fill="#db976a"/></g><g><ellipse cx="49.29" cy="47.19" fill="#db976a" rx=".03" ry=".47"/></g><g><path d="m48.6 46.88c.03.13.02.26.03.39-.01.13 0 .26-.03.39-.03-.13-.02-.26-.03-.39 0-.13 0-.26.03-.39z" fill="#db976a"/></g></g></g></g></g></g></svg>